<mxfile host="Electron" modified="2024-04-10T18:57:05.235Z" agent="Mozilla/5.0 (Windows NT 10.0; Win64; x64) AppleWebKit/537.36 (KHTML, like Gecko) draw.io/24.1.0 Chrome/120.0.6099.109 Electron/28.1.0 Safari/537.36" etag="JbMx8c6NUhbC9Q19s1WD" version="24.1.0" type="device">
  <diagram name="Página-1" id="3gqKRnXt5KwjTsprkyF4">
    <mxGraphModel dx="1514" dy="788" grid="0" gridSize="10" guides="1" tooltips="1" connect="1" arrows="1" fold="1" page="0" pageScale="1" pageWidth="827" pageHeight="1169" math="0" shadow="0">
      <root>
        <mxCell id="0" />
        <mxCell id="1" parent="0" />
        <mxCell id="Ddyv1p4y5gCR3032bXAw-13" value="&lt;font style=&quot;font-size: 21px;&quot;&gt;Modelo Conceitual de Dados&lt;/font&gt;" style="text;html=1;align=center;verticalAlign=middle;resizable=0;points=[];autosize=1;strokeColor=none;fillColor=none;strokeWidth=5;" parent="1" vertex="1">
          <mxGeometry x="-90" y="266" width="290" height="40" as="geometry" />
        </mxCell>
        <mxCell id="__w5EYQcTCQ6reo6Pu2O-18" style="edgeStyle=orthogonalEdgeStyle;rounded=0;orthogonalLoop=1;jettySize=auto;html=1;endArrow=none;endFill=0;" parent="1" source="WXTgVZCixAoeuCISGFSQ-37" target="__w5EYQcTCQ6reo6Pu2O-17" edge="1">
          <mxGeometry relative="1" as="geometry" />
        </mxCell>
        <mxCell id="WXTgVZCixAoeuCISGFSQ-37" value="&lt;font style=&quot;font-size: 16px;&quot;&gt;Evento&lt;/font&gt;" style="rounded=0;whiteSpace=wrap;html=1;" parent="1" vertex="1">
          <mxGeometry x="-73" y="697" width="120" height="60" as="geometry" />
        </mxCell>
        <mxCell id="WXTgVZCixAoeuCISGFSQ-38" style="edgeStyle=orthogonalEdgeStyle;rounded=0;orthogonalLoop=1;jettySize=auto;html=1;endArrow=none;endFill=0;startArrow=classic;startFill=1;exitX=0.5;exitY=1;exitDx=0;exitDy=0;" parent="1" source="WXTgVZCixAoeuCISGFSQ-39" target="WXTgVZCixAoeuCISGFSQ-40" edge="1">
          <mxGeometry relative="1" as="geometry">
            <mxPoint x="-13" y="482" as="targetPoint" />
          </mxGeometry>
        </mxCell>
        <mxCell id="WXTgVZCixAoeuCISGFSQ-39" value="&lt;font style=&quot;font-size: 16px;&quot;&gt;Usuário&lt;/font&gt;" style="rounded=0;whiteSpace=wrap;html=1;" parent="1" vertex="1">
          <mxGeometry x="-73" y="344" width="120" height="60" as="geometry" />
        </mxCell>
        <mxCell id="WXTgVZCixAoeuCISGFSQ-40" value="&lt;font style=&quot;font-size: 16px;&quot;&gt;Administrador&lt;/font&gt;" style="rounded=0;whiteSpace=wrap;html=1;" parent="1" vertex="1">
          <mxGeometry x="-254" y="502" width="120" height="60" as="geometry" />
        </mxCell>
        <mxCell id="WXTgVZCixAoeuCISGFSQ-41" value="&lt;font style=&quot;font-size: 16px;&quot;&gt;GerenteEventos&lt;/font&gt;" style="rounded=0;whiteSpace=wrap;html=1;" parent="1" vertex="1">
          <mxGeometry x="-73" y="502" width="120" height="60" as="geometry" />
        </mxCell>
        <mxCell id="WXTgVZCixAoeuCISGFSQ-42" style="edgeStyle=orthogonalEdgeStyle;rounded=0;orthogonalLoop=1;jettySize=auto;html=1;exitX=0.5;exitY=1;exitDx=0;exitDy=0;endArrow=none;endFill=0;startArrow=classic;startFill=1;" parent="1" source="WXTgVZCixAoeuCISGFSQ-39" target="WXTgVZCixAoeuCISGFSQ-41" edge="1">
          <mxGeometry relative="1" as="geometry">
            <mxPoint x="-94" y="505" as="targetPoint" />
            <mxPoint x="-3" y="414" as="sourcePoint" />
          </mxGeometry>
        </mxCell>
        <mxCell id="WXTgVZCixAoeuCISGFSQ-43" value="Coordena" style="shape=rhombus;perimeter=rhombusPerimeter;whiteSpace=wrap;html=1;align=center;fontSize=16;" parent="1" vertex="1">
          <mxGeometry x="-73" y="597" width="120" height="60" as="geometry" />
        </mxCell>
        <mxCell id="WXTgVZCixAoeuCISGFSQ-44" style="edgeStyle=orthogonalEdgeStyle;rounded=0;orthogonalLoop=1;jettySize=auto;html=1;entryX=0.5;entryY=0;entryDx=0;entryDy=0;strokeColor=default;endArrow=none;endFill=0;exitX=0.5;exitY=1;exitDx=0;exitDy=0;" parent="1" source="WXTgVZCixAoeuCISGFSQ-41" target="WXTgVZCixAoeuCISGFSQ-43" edge="1">
          <mxGeometry relative="1" as="geometry">
            <mxPoint x="76" y="180" as="targetPoint" />
            <mxPoint x="48" y="530" as="sourcePoint" />
            <Array as="points" />
          </mxGeometry>
        </mxCell>
        <mxCell id="WXTgVZCixAoeuCISGFSQ-45" style="edgeStyle=orthogonalEdgeStyle;rounded=0;orthogonalLoop=1;jettySize=auto;html=1;entryX=0.5;entryY=0;entryDx=0;entryDy=0;strokeColor=default;endArrow=none;endFill=0;exitX=0.5;exitY=1;exitDx=0;exitDy=0;" parent="1" source="WXTgVZCixAoeuCISGFSQ-43" target="WXTgVZCixAoeuCISGFSQ-37" edge="1">
          <mxGeometry relative="1" as="geometry">
            <mxPoint x="301" y="531.8800000000001" as="targetPoint" />
            <mxPoint x="234" y="531.8800000000001" as="sourcePoint" />
            <Array as="points" />
          </mxGeometry>
        </mxCell>
        <mxCell id="WXTgVZCixAoeuCISGFSQ-46" style="edgeStyle=orthogonalEdgeStyle;rounded=0;orthogonalLoop=1;jettySize=auto;html=1;entryX=0.5;entryY=1;entryDx=0;entryDy=0;endArrow=none;endFill=0;" parent="1" source="WXTgVZCixAoeuCISGFSQ-47" target="WXTgVZCixAoeuCISGFSQ-49" edge="1">
          <mxGeometry relative="1" as="geometry" />
        </mxCell>
        <mxCell id="WXTgVZCixAoeuCISGFSQ-47" value="&lt;span style=&quot;font-size: 16px;&quot;&gt;Locações&lt;/span&gt;" style="rounded=0;whiteSpace=wrap;html=1;" parent="1" vertex="1">
          <mxGeometry x="-254" y="694" width="120" height="60" as="geometry" />
        </mxCell>
        <mxCell id="WXTgVZCixAoeuCISGFSQ-48" style="edgeStyle=orthogonalEdgeStyle;rounded=0;orthogonalLoop=1;jettySize=auto;html=1;entryX=0.5;entryY=1;entryDx=0;entryDy=0;endArrow=none;endFill=0;" parent="1" source="WXTgVZCixAoeuCISGFSQ-49" target="WXTgVZCixAoeuCISGFSQ-40" edge="1">
          <mxGeometry relative="1" as="geometry" />
        </mxCell>
        <mxCell id="WXTgVZCixAoeuCISGFSQ-49" value="Gerencia" style="shape=rhombus;perimeter=rhombusPerimeter;whiteSpace=wrap;html=1;align=center;fontSize=16;" parent="1" vertex="1">
          <mxGeometry x="-254" y="595" width="120" height="60" as="geometry" />
        </mxCell>
        <mxCell id="WXTgVZCixAoeuCISGFSQ-50" style="edgeStyle=orthogonalEdgeStyle;rounded=0;orthogonalLoop=1;jettySize=auto;html=1;strokeColor=default;endArrow=none;endFill=0;exitX=1;exitY=0.5;exitDx=0;exitDy=0;entryX=0.5;entryY=1;entryDx=0;entryDy=0;" parent="1" source="WXTgVZCixAoeuCISGFSQ-53" target="WXTgVZCixAoeuCISGFSQ-37" edge="1">
          <mxGeometry relative="1" as="geometry">
            <mxPoint x="120" y="936" as="targetPoint" />
            <mxPoint x="-42.5" y="837" as="sourcePoint" />
          </mxGeometry>
        </mxCell>
        <mxCell id="WXTgVZCixAoeuCISGFSQ-51" style="edgeStyle=orthogonalEdgeStyle;rounded=0;orthogonalLoop=1;jettySize=auto;html=1;entryX=0;entryY=0.5;entryDx=0;entryDy=0;strokeColor=default;endArrow=none;endFill=0;" parent="1" source="WXTgVZCixAoeuCISGFSQ-47" target="WXTgVZCixAoeuCISGFSQ-53" edge="1">
          <mxGeometry relative="1" as="geometry">
            <mxPoint x="-162.5" y="837" as="targetPoint" />
            <mxPoint x="-233" y="936" as="sourcePoint" />
            <Array as="points" />
          </mxGeometry>
        </mxCell>
        <mxCell id="WXTgVZCixAoeuCISGFSQ-52" value="&lt;font style=&quot;font-size: 16px;&quot;&gt;Participante&lt;/font&gt;" style="rounded=0;whiteSpace=wrap;html=1;" parent="1" vertex="1">
          <mxGeometry x="454" y="502" width="120" height="60" as="geometry" />
        </mxCell>
        <mxCell id="WXTgVZCixAoeuCISGFSQ-53" value="Recebe" style="shape=associativeEntity;whiteSpace=wrap;html=1;align=center;" parent="1" vertex="1">
          <mxGeometry x="-152.75" y="793" width="95.5" height="54" as="geometry" />
        </mxCell>
        <mxCell id="WXTgVZCixAoeuCISGFSQ-56" style="edgeStyle=orthogonalEdgeStyle;rounded=0;orthogonalLoop=1;jettySize=auto;html=1;strokeColor=default;endArrow=none;endFill=0;entryX=0.5;entryY=0;entryDx=0;entryDy=0;" parent="1" source="WXTgVZCixAoeuCISGFSQ-52" target="__w5EYQcTCQ6reo6Pu2O-16" edge="1">
          <mxGeometry relative="1" as="geometry">
            <mxPoint x="526.0476190476193" y="733" as="targetPoint" />
            <mxPoint x="143" y="736" as="sourcePoint" />
          </mxGeometry>
        </mxCell>
        <mxCell id="__w5EYQcTCQ6reo6Pu2O-19" style="edgeStyle=orthogonalEdgeStyle;rounded=0;orthogonalLoop=1;jettySize=auto;html=1;entryX=1;entryY=0.5;entryDx=0;entryDy=0;endArrow=none;endFill=0;" parent="1" source="__w5EYQcTCQ6reo6Pu2O-4" target="__w5EYQcTCQ6reo6Pu2O-17" edge="1">
          <mxGeometry relative="1" as="geometry" />
        </mxCell>
        <mxCell id="__w5EYQcTCQ6reo6Pu2O-4" value="&lt;font style=&quot;font-size: 16px;&quot;&gt;Ingresso&lt;/font&gt;" style="rounded=0;whiteSpace=wrap;html=1;" parent="1" vertex="1">
          <mxGeometry x="269" y="697" width="120" height="60" as="geometry" />
        </mxCell>
        <mxCell id="__w5EYQcTCQ6reo6Pu2O-5" style="edgeStyle=orthogonalEdgeStyle;rounded=0;orthogonalLoop=1;jettySize=auto;html=1;entryX=1;entryY=0.5;entryDx=0;entryDy=0;endArrow=none;endFill=0;exitX=0;exitY=0.5;exitDx=0;exitDy=0;" parent="1" source="__w5EYQcTCQ6reo6Pu2O-16" target="__w5EYQcTCQ6reo6Pu2O-4" edge="1">
          <mxGeometry relative="1" as="geometry">
            <mxPoint x="466" y="763" as="sourcePoint" />
          </mxGeometry>
        </mxCell>
        <mxCell id="__w5EYQcTCQ6reo6Pu2O-12" style="edgeStyle=orthogonalEdgeStyle;rounded=0;orthogonalLoop=1;jettySize=auto;html=1;entryX=0;entryY=0.5;entryDx=0;entryDy=0;endArrow=none;endFill=0;" parent="1" source="__w5EYQcTCQ6reo6Pu2O-10" target="__w5EYQcTCQ6reo6Pu2O-14" edge="1">
          <mxGeometry relative="1" as="geometry">
            <mxPoint x="349" y="531" as="targetPoint" />
          </mxGeometry>
        </mxCell>
        <mxCell id="__w5EYQcTCQ6reo6Pu2O-10" value="&lt;font style=&quot;font-size: 16px;&quot;&gt;Staff&lt;/font&gt;" style="rounded=0;whiteSpace=wrap;html=1;" parent="1" vertex="1">
          <mxGeometry x="76" y="502" width="120" height="60" as="geometry" />
        </mxCell>
        <mxCell id="__w5EYQcTCQ6reo6Pu2O-11" style="edgeStyle=orthogonalEdgeStyle;rounded=0;orthogonalLoop=1;jettySize=auto;html=1;exitX=0.5;exitY=1;exitDx=0;exitDy=0;endArrow=none;endFill=0;startArrow=classic;startFill=1;entryX=0.5;entryY=0;entryDx=0;entryDy=0;" parent="1" source="WXTgVZCixAoeuCISGFSQ-39" target="__w5EYQcTCQ6reo6Pu2O-10" edge="1">
          <mxGeometry relative="1" as="geometry">
            <mxPoint x="216" y="472" as="targetPoint" />
            <mxPoint x="126" y="381" as="sourcePoint" />
          </mxGeometry>
        </mxCell>
        <mxCell id="__w5EYQcTCQ6reo6Pu2O-24" style="edgeStyle=orthogonalEdgeStyle;rounded=0;orthogonalLoop=1;jettySize=auto;html=1;endArrow=none;endFill=0;" parent="1" source="__w5EYQcTCQ6reo6Pu2O-14" target="__w5EYQcTCQ6reo6Pu2O-4" edge="1">
          <mxGeometry relative="1" as="geometry" />
        </mxCell>
        <mxCell id="__w5EYQcTCQ6reo6Pu2O-14" value="Checkin" style="shape=associativeEntity;whiteSpace=wrap;html=1;align=center;" parent="1" vertex="1">
          <mxGeometry x="281" y="505" width="95.5" height="54" as="geometry" />
        </mxCell>
        <mxCell id="__w5EYQcTCQ6reo6Pu2O-16" value="OrdemDeCompra" style="shape=associativeEntity;whiteSpace=wrap;html=1;align=center;" parent="1" vertex="1">
          <mxGeometry x="452" y="700" width="124" height="54" as="geometry" />
        </mxCell>
        <mxCell id="__w5EYQcTCQ6reo6Pu2O-17" value="Disponibiliza" style="shape=rhombus;perimeter=rhombusPerimeter;whiteSpace=wrap;html=1;align=center;fontSize=16;" parent="1" vertex="1">
          <mxGeometry x="97" y="697" width="120" height="60" as="geometry" />
        </mxCell>
        <mxCell id="__w5EYQcTCQ6reo6Pu2O-20" style="edgeStyle=orthogonalEdgeStyle;rounded=0;orthogonalLoop=1;jettySize=auto;html=1;endArrow=none;endFill=0;exitX=0.75;exitY=1;exitDx=0;exitDy=0;entryX=0;entryY=0.5;entryDx=0;entryDy=0;" parent="1" source="WXTgVZCixAoeuCISGFSQ-37" target="__w5EYQcTCQ6reo6Pu2O-23" edge="1">
          <mxGeometry relative="1" as="geometry">
            <mxPoint x="47" y="823" as="sourcePoint" />
          </mxGeometry>
        </mxCell>
        <mxCell id="__w5EYQcTCQ6reo6Pu2O-21" style="edgeStyle=orthogonalEdgeStyle;rounded=0;orthogonalLoop=1;jettySize=auto;html=1;entryX=1;entryY=0.5;entryDx=0;entryDy=0;endArrow=none;endFill=0;" parent="1" source="__w5EYQcTCQ6reo6Pu2O-22" target="__w5EYQcTCQ6reo6Pu2O-23" edge="1">
          <mxGeometry relative="1" as="geometry" />
        </mxCell>
        <mxCell id="__w5EYQcTCQ6reo6Pu2O-22" value="&lt;font style=&quot;font-size: 16px;&quot;&gt;Categoria&lt;/font&gt;" style="rounded=0;whiteSpace=wrap;html=1;" parent="1" vertex="1">
          <mxGeometry x="269" y="793" width="120" height="60" as="geometry" />
        </mxCell>
        <mxCell id="__w5EYQcTCQ6reo6Pu2O-23" value="Pertence" style="shape=rhombus;perimeter=rhombusPerimeter;whiteSpace=wrap;html=1;align=center;fontSize=16;" parent="1" vertex="1">
          <mxGeometry x="97" y="793" width="120" height="60" as="geometry" />
        </mxCell>
      </root>
    </mxGraphModel>
  </diagram>
</mxfile>
